<?xml version="1.0" encoding="utf-8"?>
<!-- Generator: Adobe Illustrator 25.1.0, SVG Export Plug-In . SVG Version: 6.00 Build 0)  -->
<svg version="1.1" id="Ebene_1" xmlns="http://www.w3.org/2000/svg" xmlns:xlink="http://www.w3.org/1999/xlink" x="0px" y="0px"
	 viewBox="0 0 60 60" style="enable-background:new 0 0 60 60;" xml:space="preserve">
<style type="text/css">
	.st0{fill:#79D45E;}
	.st1{fill:#FFFFFF;}
</style>
<path class="st0" d="M57.7,18.3c-0.8-1.6-1.2-3.4-2.3-4.9c-1.3-1.8-2.6-3.6-4.2-5.2c-2.5-2.7-5.5-4.7-8.9-5.9
	c-4.8-1.7-9.8-2.6-14.9-2.1c-4.7,0.5-9.4,1.5-13.4,4c-3,1.9-5.7,4.3-7.8,7.3c-1.9,2.6-3.5,5.2-4.5,8.2C0.2,24.3-0.4,29,0.3,33.8
	c0.4,2.4,0.3,4.9,1.8,7c0.3,0.5,0.4,1.2,0.7,1.7c0.2,0.4,0.4,0.9,0.6,1.3c0.4,0.5,0.6,1.2,1,1.7v0c1,2.8,3.2,4.8,5.3,6.7
	c3.1,2.9,6.8,5,11,6.2c4.3,1.2,8.5,2,13,1.2c4.2-0.7,8.1-1.7,11.7-4c4.6-2.8,8.2-6.3,11-11C59.3,40,60,34.9,60,29.8
	C60,26,59.7,21.9,57.7,18.3z M47,20.7c-1.1,2-2.3,3.8-3.5,5.7c-4.2,6.8-8.4,13.7-12.2,20.8c-1.8,3.3-6.1,3.4-7.9,0.3
	c-0.1-0.2-0.3-0.4-0.5-0.6c-0.5-1.1-1.1-2.1-1.8-3.2c-0.9-1.5-1.7-3.2-2.8-4.7c-0.7-1.5-1.6-3-2.5-4.4c-0.8-1.9-2-3.5-3-5.3
	c-0.1-0.2-0.2-0.4-0.4-0.6c-1.6-2.6-0.6-5.4,1-6.9c2.4-2.3,6.5-1.8,8.1,1.2c0.9,1.8,1.7,3.6,2.6,5.4c0.9,2.1,1.8,4.1,2.8,6.2
	c0.1,0.3,0.2,0.7,0.5,0.7c0.4,0,0.5-0.4,0.6-0.7c1.5-3.3,3.1-6.5,4.6-9.8c1.6-3.3,3.1-6.6,4.7-9.9c1.3-2.6,3.3-3.7,6.2-3.4
	c1.4,0.2,2.6,0.8,3.3,2.1C48.2,15.9,48.3,18.3,47,20.7z"/>
<path class="st1" d="M47,20.7c-1.1,2-2.3,3.8-3.5,5.7c-4.2,6.8-8.4,13.7-12.2,20.8c-1.8,3.3-6.1,3.4-7.9,0.3
	c-0.1-0.2-0.3-0.4-0.5-0.6c-0.5-1.1-1.1-2.1-1.8-3.2c-0.9-1.5-1.7-3.2-2.8-4.7c-0.7-1.5-1.6-3-2.5-4.4c-0.8-1.9-2-3.5-3-5.3
	c-0.1-0.2-0.2-0.4-0.4-0.6c-1.6-2.6-0.6-5.4,1-6.9c2.4-2.3,6.5-1.8,8.1,1.2c0.9,1.8,1.7,3.6,2.6,5.4c0.9,2.1,1.8,4.1,2.8,6.2
	c0.1,0.3,0.2,0.7,0.5,0.7c0.4,0,0.5-0.4,0.6-0.7c1.5-3.3,3.1-6.5,4.6-9.8c1.6-3.3,3.1-6.6,4.7-9.9c1.3-2.6,3.3-3.7,6.2-3.4
	c1.4,0.2,2.6,0.8,3.3,2.1C48.2,15.9,48.3,18.3,47,20.7z"/>
</svg>
