<?xml version="1.0" encoding="utf-8"?>
<!-- Generator: Adobe Illustrator 25.1.0, SVG Export Plug-In . SVG Version: 6.00 Build 0)  -->
<svg version="1.1" id="Ebene_1" xmlns="http://www.w3.org/2000/svg" xmlns:xlink="http://www.w3.org/1999/xlink" x="0px" y="0px"
	 viewBox="0 0 60 60" style="enable-background:new 0 0 60 60;" xml:space="preserve">
<style type="text/css">
	.st0{fill-rule:evenodd;clip-rule:evenodd;fill:#D3D3D3;}
	.st1{fill-rule:evenodd;clip-rule:evenodd;fill:#FFFFFF;}
</style>
<path id="check" class="st0" d="M30,0C13.4,0,0,13.4,0,30s13.4,30,30,30s30-13.4,30-30S46.6,0,30,0z M47,23.6L25.9,45
	c-1.2,1.3-3.2,1.3-4.5,0.1c0,0,0,0,0-0.1L13,36.8c-1.3-1.4-1.3-3.6,0-4.9l1.8-1.8c1.2-1.2,3.2-1.3,4.5,0c0,0,0,0,0.1,0.1l3.1,3.2
	c0.6,0.6,1.6,0.7,2.2,0.1c0,0,0.1,0,0.1-0.1L40.7,17c1.2-1.3,3.2-1.3,4.5-0.1l0.1,0.1l1.7,1.7C48.3,20.1,48.3,22.2,47,23.6z"/>
<path class="st1" d="M47,23.6L25.9,45c-1.2,1.3-3.2,1.3-4.5,0.1c0,0,0,0,0-0.1L13,36.8c-1.3-1.4-1.3-3.6,0-4.9l1.8-1.8
	c1.2-1.2,3.2-1.3,4.5,0c0,0,0,0,0.1,0.1l3.1,3.2c0.6,0.6,1.6,0.7,2.2,0.1c0,0,0.1,0,0.1-0.1L40.7,17c1.2-1.3,3.2-1.3,4.5-0.1
	l0.1,0.1l1.7,1.7C48.3,20.1,48.3,22.2,47,23.6z"/>
</svg>
