<?xml version="1.0" encoding="utf-8"?>
<!-- Generator: Adobe Illustrator 25.1.0, SVG Export Plug-In . SVG Version: 6.00 Build 0)  -->
<svg version="1.1" id="Ebene_1" xmlns="http://www.w3.org/2000/svg" xmlns:xlink="http://www.w3.org/1999/xlink" x="0px" y="0px"
	 viewBox="0 0 60 60" style="enable-background:new 0 0 60 60;" xml:space="preserve">
<style type="text/css">
	.st0{fill:#FFFFFF;}
</style>
<path class="st0" d="M55.4,19.2c-3.2-3.6-6.7-6.8-10.4-9.9c-0.4-0.4-0.9-0.7-1.2-1.2c-0.8-0.3-1.4-0.9-2.1-1.4
	c-2.2-1.6-4.5-3.1-6.7-4.8c-3.4-2.5-8-2.7-11.8,0.2c-5.8,4.5-11.5,9.2-16.5,14.5c-1,1.1-2.1,2.2-2.9,3.5c-1.4,2.2-1,4.5,1,6.2
	c0.6,0.5,0.8,1,0.7,1.8c-0.6,5-0.8,9.8-0.7,14.7c0.1,3.3,0.5,6.6,1.3,9.8c0.9,3.7,3.4,5.9,7.2,6.5c2.8,0.5,5.7,0.8,8.6,0.9
	c6.5,0.2,12.9,0,19.3-0.3c1.8-0.1,3.6-0.2,5.3-0.6c4.3-0.8,6.3-2.8,7.1-7.1c0.6-3.3,1-6.6,1.1-10c0.1-4.5,0.2-8.9-0.5-13.3
	c-0.2-1,0.1-1.7,1-2.2c1.2-0.7,1.7-1.9,1.8-3.3C57.2,21.5,56.4,20.4,55.4,19.2z M34.7,44.5c-0.2,1.9-0.2,3.9-0.3,5.8
	c-0.1,1.5-0.3,1.7-1.8,1.8c-1.9,0.1-3.8,0.4-5.8,0.1c-1.3-0.2-1.4-0.3-1.5-1.6c-0.1-1.2-0.2-2.4-0.3-3.6c0-0.7,0-1.5,0-2.2
	c-0.1-2.2,0.1-4.3,0.5-6.4c0.3-1.2,0.4-1.4,1.7-1.4c1.7,0,3.5,0,5.2,0c1.4,0,1.7,0.3,1.9,1.7C34.6,40.8,34.9,42.6,34.7,44.5z
	 M46.1,49.7c-0.2,1.7-0.3,1.7-1.9,1.8c-0.4,0-0.8,0.1-1.3,0.1c-1.1,0-1.3-0.1-1.3-1.3c0.1-1.4,0.2-2.8,0.4-4.2c0.4-3,0.3-6,0.2-9
	c-0.1-4.5-3.6-7.9-8.1-8c-2.9-0.1-5.8-0.1-8.7,0c-3.9,0.1-6.6,2.4-7.4,6.2c-0.2,1.2-0.4,2.4-0.4,3.6c-0.1,3.5,0.1,7,0.3,10.5
	c0.1,2-0.2,2.2-2.2,1.9c-0.3,0-0.5-0.1-0.8-0.1c-1.2-0.3-1.3-0.4-1.4-1.5c-0.5-3.9-0.8-7.7-0.7-11c0-3.8,0-6.9,0.6-10
	c0.3-1.7,0.3-1.7,2.1-1.8c4.2,0,8.4,0,12.6-0.1c5.2-0.2,10.5,0.1,15.7,0.1c0.3,0,0.5,0,0.8,0c1.1,0.1,1.4,0.3,1.5,1.4
	c0.2,1.9,0.5,3.7,0.6,5.6C47.2,39.3,46.7,44.5,46.1,49.7z"/>
</svg>
