<?xml version="1.0" encoding="utf-8"?>
<!-- Generator: Adobe Illustrator 25.1.0, SVG Export Plug-In . SVG Version: 6.00 Build 0)  -->
<svg version="1.1" id="Ebene_1" xmlns="http://www.w3.org/2000/svg" xmlns:xlink="http://www.w3.org/1999/xlink" x="0px" y="0px"
	 viewBox="0 0 60 60" style="enable-background:new 0 0 60 60;" xml:space="preserve">
<style type="text/css">
	.st0{fill:#9A9A9A;}
	.st1{fill:#FFFFFF;}
</style>
<g>
	<path class="st0" d="M-832.4-1199.2c-4-40.1-24.3-69.7-60.1-88.6c-30.8-16.3-63.3-19.6-97-13c-29.5,5.8-54.4,20.2-73.4,43.4
		c-19.7,24.1-27.9,51.9-22.6,83.1h-0.1c4.8,7.5,8.8,15.6,16,21.5c13,10.6,27.4,11.7,42.3,5.8c13.7-5.4,18.3-17.5,19.7-31.2
		c0.7-6.6,1.2-13.3,2-19.9c1.3-10.3,6.5-17.8,16.1-22.4c20.6-9.8,41.1-9.9,61.6,0.3c12.9,6.4,19,17.2,19.9,31.2
		c0.6,9.1-0.8,18-3.4,26.6c-4.1,13.4-12.7,22.4-26.2,26.5c-4.1,1.2-8.4,2.3-12.5,3.7c-29.8,10.4-48,36.6-47.4,68.1
		c0.4,21,14.1,37.2,33.7,39.8c18.5,2.4,38.1-8.9,42-30c1.1-6.1,5.1-7.8,10-9.6c28-10.1,50.3-27.1,64.3-53.9
		C-834.1-1143.4-829.6-1170.8-832.4-1199.2z"/>
	<path class="st0" d="M-958.9-998c-21.5,0.1-38.8,17.7-38.2,39.1c0.5,20.3,18,37,38.4,36.9c21.3-0.2,38.6-17.5,38.1-38
		C-921.2-981.6-937.8-998-958.9-998z"/>
</g>
<g>
	<path class="st1" d="M30,17.1c-1.2,0-2.3,0-3.5,0c-2.9-0.1-4.4-1.7-4.4-4.6c0-0.8,0-1.7,0-2.5c0-2.9,1.3-4.5,4.2-5
		c1.6-0.3,3.2-0.5,4.9-0.3c1.1,0.1,2.3,0.2,3.4,0.5c2.2,0.6,3.6,2.2,3.6,4.6c0,0.8,0,1.7,0,2.5c-0.1,3.3-1.6,4.8-4.9,4.9
		C32.2,17.2,31.1,17.1,30,17.1z"/>
	<path class="st1" d="M10.7,17.1c-1.1,0-2.2,0-3.3,0c-1,0-2-0.3-2.8-0.9c-1.2-0.8-1.8-1.9-1.5-3.4c0-0.3,0.1-0.5,0.1-0.8
		c0.6-4.6,3.1-6.3,7.3-6.9c1.7-0.2,3.3-0.5,5-0.2c2.1,0.4,3.3,1.6,3.4,3.7c0.1,1.5,0.1,3.1,0,4.6c-0.2,2.1-1.3,3.2-3.4,3.6
		C13.9,17.2,12.3,17.1,10.7,17.1z"/>
	<path class="st1" d="M48.8,17.1c-1,0-2.1,0-3.1,0c-2.9-0.1-4.6-1.7-4.6-4.6c0-1.1,0-2.2,0-3.3c0.1-2.4,1.5-4,3.9-4.2
		c2.6-0.2,5.2,0,7.6,1c2,0.8,3.4,2.2,4,4.4c0.2,0.7,0.3,1.3,0.4,2c0.8,2.6-1.3,4.3-3.3,4.6c-0.8,0.1-1.7,0.2-2.5,0.2
		C50.4,17.2,49.6,17.1,48.8,17.1z"/>
	<path class="st1" d="M10.9,36.1c-1.3,0-2.5,0-3.8,0c-2.4-0.1-4.4-1.9-4.5-4.4c-0.1-1.1-0.1-2.2,0-3.3c0.1-2.3,2.1-4.2,4.4-4.3
		c2.7-0.1,5.5-0.1,8.2,0c2,0,3.5,1.4,3.7,3.4c0.1,1.7,0.1,3.4,0,5c-0.2,2-1.7,3.4-3.8,3.5C13.7,36.2,12.3,36.1,10.9,36.1
		C10.9,36.1,10.9,36.1,10.9,36.1z"/>
	<path class="st1" d="M49.1,24.1c1.3,0,2.5,0,3.8,0c2.6,0.1,4.5,2.1,4.6,4.6c0,1,0,2,0,3c-0.2,2.4-2,4.3-4.4,4.3
		c-2.7,0.1-5.5,0.1-8.2,0c-2.2-0.1-3.7-1.6-3.8-3.8C41,30.9,41,29.5,41,28c0.1-2.2,1.6-3.7,3.8-3.9C46.2,24.1,47.7,24.2,49.1,24.1
		C49.1,24.2,49.1,24.1,49.1,24.1z"/>
	<path class="st1" d="M30,24.1c1.3,0,2.6,0,3.9,0c2.4,0.1,3.8,1.4,4.1,3.7c0.2,1.5,0.2,3,0,4.6c-0.3,2.3-1.8,3.7-4.1,3.7
		c-2.6,0-5.1,0-7.7,0c-2.5,0-4-1.5-4.1-4c-0.1-1.4-0.1-2.7,0-4.1c0.1-2.2,1.6-3.7,3.8-3.8C27.3,24.1,28.7,24.2,30,24.1
		C30,24.1,30,24.1,30,24.1z"/>
	<path class="st1" d="M30.1,43.3c1.3,0,2.6,0,3.9,0c2.5-0.1,4,1.9,4.1,3.7c0.1,1.4,0.1,2.8,0,4.2c-0.2,2.3-1.7,3.9-4,4
		c-2.7,0.1-5.5,0.1-8.2,0c-2.5-0.1-3.8-1.7-3.9-4.3c0-1.3,0-2.5,0-3.8c0.1-2.4,1.5-3.8,3.9-3.9C27.4,43.3,28.7,43.3,30.1,43.3
		C30.1,43.3,30.1,43.3,30.1,43.3z"/>
	<path class="st1" d="M11,43.3c1.4,0,2.7,0,4.1,0c2.3,0.1,3.7,1.4,3.9,3.7c0.1,1.5,0.1,2.9,0,4.4c-0.1,2-1.2,3.3-3.2,3.6
		c-3.2,0.5-6.4,0-9.4-1.3c-1-0.4-1.6-1.3-2.2-2.2c-0.8-1.4-1.1-3-1.3-4.5c-0.2-1.8,1.3-3.4,3.4-3.6c0.2,0,0.3,0,0.5,0
		C8.2,43.3,9.6,43.3,11,43.3z"/>
	<path class="st1" d="M41.1,49.2c0-0.7,0-1.4,0-2c0.2-2.2,1.7-3.7,3.9-3.7c2.7-0.1,5.5,0,8.2,0c1.1,0,2.1,0.4,2.9,1.1
		c0.6,0.5,1,1.1,1,1.9c-0.1,2.6-0.5,5.1-2.7,7c-1.1,0.9-2.5,1.3-3.9,1.5c-1.9,0.3-3.8,0.7-5.8,0.3c-2.2-0.4-3.4-1.7-3.6-4
		C41,50.5,41.1,49.8,41.1,49.2C41.1,49.2,41.1,49.2,41.1,49.2z"/>
</g>
</svg>
