<?xml version="1.0" encoding="utf-8"?>
<!-- Generator: Adobe Illustrator 25.1.0, SVG Export Plug-In . SVG Version: 6.00 Build 0)  -->
<svg version="1.1" id="Ebene_1" xmlns="http://www.w3.org/2000/svg" xmlns:xlink="http://www.w3.org/1999/xlink" x="0px" y="0px"
	 viewBox="0 0 507.7 266.5" style="enable-background:new 0 0 507.7 266.5;" xml:space="preserve">
<style type="text/css">
	.st0{fill:#636363;}
	.st1{fill:#FFAF68;}
	.st2{fill:#F4889A;}
	.st3{fill:#F2C849;}
	.st4{fill:#79D45E;}
	.st5{fill:#31BFF3;}
	.st6{fill:#A484E9;}
</style>
<path class="st0" d="M446,214c-78.6,49.9-177.8,61.8-260.2,45.7c-62.9-12.2-146.3-32.6-177.1-99.4c-25-54.7,5.2-115,78.5-136.8
	C186.7-5.6,292-7.3,395.3,16.2c43.9,10,96.8,33.7,109.6,81.5C517.7,145.2,485.4,189,446,214z"/>
<path class="st1" d="M313.6,189.4h4.5c0.9,0,1.5,0.3,1.7,0.7c0.2,0.5,0.3,0.9,0.3,1.4v5.7c0,0.6-0.3,1.2-0.7,1.6
	c-1.4,1.5-3.6,2.3-6.5,2.3c-2.5,0-5-1-6.7-2.8c-1.9-1.8-2.9-4.4-2.9-7c-0.1-2.6,1-5.1,2.8-6.9c3.4-3.4,8.7-3.7,12.5-0.8
	c0.4,0.2,0.7,0.7,0.7,1.1c0,0.5-0.2,1-0.6,1.5c-0.7,0.9-1.3,1.4-1.8,1.4c-0.6-0.1-1.1-0.3-1.6-0.7c-0.8-0.5-1.7-0.7-2.6-0.7
	c-1.3,0-2.5,0.5-3.5,1.4s-1.5,2.2-1.5,3.6c0,1.4,0.5,2.8,1.6,3.8c0.9,1,2.2,1.5,3.5,1.5c0.9,0,1.7-0.2,2.5-0.5v-2.8h-2
	c-0.4,0-0.8,0-1.1-0.2c-0.2-0.1-0.4-0.3-0.4-0.6c-0.1-0.4-0.1-0.7-0.1-1.1c0-0.4,0-0.7,0.1-1.1c0.1-0.2,0.2-0.4,0.4-0.6
	C312.8,189.4,313.2,189.3,313.6,189.4z"/>
<path class="st1" d="M335.4,192.1c0.1,0.9-0.2,1.7-0.8,2.4c-0.4,0.5-1.1,0.8-1.7,0.8l-6.1,0.1c0,0.5,0.4,1,0.9,1.2
	c0.5,0.3,1.1,0.5,1.7,0.5c0.8,0,1.6-0.1,2.3-0.3l0.3-0.1c0.3-0.2,0.7-0.3,1-0.3c0.5,0,1,0.4,1.4,1.1c0.2,0.4,0.3,0.8,0.3,1.2
	c0,1.5-1.8,2.3-5.5,2.3c-1.2,0-2.3-0.2-3.4-0.6c-0.9-0.4-1.7-1-2.3-1.7c-1-1.3-1.6-2.9-1.6-4.6c-0.1-2,0.7-3.8,2.1-5.2
	c1.4-1.3,3.3-2,5.2-2c2.1-0.2,4.1,0.8,5.3,2.5C335.1,190.1,335.4,191.1,335.4,192.1z M330,193c0.7,0,1-0.3,1-0.8
	c0-0.4-0.2-0.7-0.5-0.9c-0.4-0.3-0.8-0.4-1.3-0.4c-0.6,0-1.2,0.3-1.7,0.7c-0.5,0.3-0.8,0.9-0.8,1.5L330,193z"/>
<path class="st1" d="M344.9,186.9c1.2,0,1.9,0.3,2.1,1c0.1,0.4,0.2,0.8,0.2,1.3c0,0.4,0,0.9-0.2,1.3c-0.1,0.3-0.3,0.5-0.5,0.7
	c-0.5,0.2-1,0.3-1.6,0.3l-1.6-0.1l0.1,6.9c0,0.5,0,1-0.2,1.4c-0.1,0.3-0.4,0.5-0.7,0.6c-0.4,0.1-0.9,0.2-1.3,0.2s-0.9,0-1.3-0.2
	c-0.3-0.1-0.5-0.3-0.7-0.5c-0.1-0.2-0.2-0.4-0.2-0.7s-0.1-0.6,0-0.9l-0.1-6.8H338c-0.4,0-0.7-0.1-1-0.3c-0.4-0.5-0.6-1.2-0.5-1.9
	c0-1.4,0.5-2.1,1.5-2.1h0.9v-1.4c0-1.3,0.5-2.6,1.4-3.6c1-1.1,2.5-1.7,4.1-1.6c0.3,0,0.6,0,0.9,0c0.2,0,0.5,0.1,0.7,0.2
	c0.5,0.2,0.7,0.9,0.7,2c0.1,0.6-0.1,1.3-0.4,1.8c-0.3,0.3-0.7,0.5-1.1,0.5h-0.7c-0.6,0-1,0.2-0.9,0.6v1.4L344.9,186.9z"/>
<path class="st1" d="M354.5,200.3c-1.7,0.1-3.3-0.7-4.3-1.9c-1.2-1.3-1.8-3-1.8-4.8v-4.5c0-0.4,0-0.7,0-0.9s0.1-0.5,0.2-0.7
	c0.2-0.5,0.9-0.7,2-0.7s1.9,0.3,2.1,1c0.1,0.4,0.2,0.9,0.2,1.3v4.5c0,1.3,1.1,2.3,2.4,2.2c0.6,0,1.1-0.2,1.5-0.6
	c0.4-0.4,0.7-1,0.6-1.6V189c0-0.4,0-0.7,0-0.9s0.1-0.5,0.2-0.7c0.2-0.4,0.9-0.7,2-0.7s1.7,0.2,2,0.7c0.1,0.2,0.2,0.4,0.2,0.7
	s0,0.6,0,0.9l0.1,9.1c0,0.3,0,0.6,0,0.9c0,0.2-0.1,0.5-0.2,0.7c-0.2,0.4-0.9,0.7-2,0.7s-1.7-0.2-1.9-0.6c-0.2-0.3-0.3-0.7-0.3-1.1
	c-0.1,0.2-0.3,0.4-0.5,0.5c-0.2,0.2-0.4,0.4-0.7,0.6C355.8,200.2,355.2,200.4,354.5,200.3z M352.9,184.9c-0.4,0.1-0.9,0.2-1.3,0.2
	s-0.9,0-1.3-0.1c-0.3-0.1-0.6-0.3-0.7-0.5s-0.2-0.5-0.2-0.7c0-0.3,0-0.6,0-0.9c0-0.3,0-0.6,0-0.9c0-0.2,0.1-0.5,0.2-0.7
	c0.1-0.3,0.4-0.5,0.7-0.6c0.9-0.2,1.8-0.2,2.6,0c0.3,0.1,0.6,0.3,0.7,0.6c0.1,0.2,0.2,0.4,0.2,0.7s0.1,0.6,0,0.9c0,0.4,0,0.7,0,0.9
	s-0.1,0.5-0.2,0.7C353.5,184.7,353.2,184.9,352.9,184.9z M359.8,184.9c-0.4,0.1-0.9,0.2-1.3,0.2s-0.9,0-1.3-0.1
	c-0.3-0.1-0.6-0.3-0.7-0.5s-0.2-0.5-0.2-0.7c0-0.3,0-0.6,0-0.9c0-0.4,0-0.7,0-0.9s0.1-0.5,0.2-0.7c0.2-0.3,0.4-0.5,0.7-0.5
	c0.4-0.1,0.9-0.2,1.3-0.2s0.9,0,1.3,0.1c0.3,0.1,0.6,0.3,0.7,0.6c0.1,0.2,0.2,0.4,0.2,0.7s0.1,0.6,0,0.9c0,0.4,0,0.7,0,0.9
	s-0.1,0.5-0.2,0.7C360.4,184.6,360.1,184.8,359.8,184.9L359.8,184.9z"/>
<path class="st1" d="M371.9,186.7c1.7-0.1,3.2,0.7,4.3,1.9c1.2,1.3,1.8,3,1.8,4.8v4.5c0,0.3,0,0.6,0,0.9c0,0.2-0.1,0.5-0.2,0.7
	c-0.2,0.4-0.9,0.7-2,0.7s-1.7-0.2-2-0.7c-0.1-0.2-0.2-0.4-0.2-0.7s-0.1-0.6,0-0.9v-4.5c0-0.6-0.2-1.2-0.6-1.6
	c-0.4-0.4-0.9-0.6-1.5-0.6s-1.2,0.2-1.6,0.6c-0.4,0.3-0.7,0.7-0.8,1.2v5c0,0.3,0,0.6,0,0.9c0,0.2-0.1,0.5-0.2,0.7
	c-0.2,0.4-0.9,0.7-2,0.7s-1.7-0.2-2-0.7c-0.1-0.2-0.2-0.4-0.2-0.7s-0.1-0.6,0-0.9l-0.1-15.4c0-0.4,0-0.7,0-0.9s0.1-0.5,0.2-0.7
	c0.2-0.5,0.9-0.7,2-0.7s1.7,0.2,2,0.7c0.1,0.2,0.2,0.4,0.2,0.7s0,0.6,0,0.9v5.7C369.5,187.3,370.6,186.8,371.9,186.7z"/>
<path class="st1" d="M380,182.5c0-0.4,0-0.7,0-0.9s0.1-0.5,0.2-0.7c0.2-0.5,0.9-0.7,2-0.7s1.7,0.2,2,0.7c0.1,0.2,0.2,0.4,0.2,0.7
	s0,0.6,0,0.9l0.1,11.9c0,0.4,0,0.8,0.2,1.2c0.1,0.2,0.3,0.2,0.7,0.2c0.2,0,0.5,0,0.7,0s0.3,0.1,0.4,0.2c0.4,0.2,0.5,0.8,0.5,1.8
	s-0.1,1.7-0.5,2s-1.5,0.4-3.2,0.2c-1,0-2-0.5-2.6-1.3c-0.6-1.3-0.8-2.6-0.8-4L380,182.5z"/>
<path class="st1" d="M401.3,191.6c0.1,0.9-0.2,1.7-0.8,2.4c-0.5,0.5-1.1,0.8-1.7,0.8l-6.1,0.1c0,0.5,0.4,1,0.9,1.2
	c0.5,0.3,1.1,0.5,1.7,0.5c0.8,0,1.6-0.1,2.3-0.3l0.3-0.1c0.3-0.2,0.7-0.3,1-0.3c0.5,0,1,0.4,1.4,1.1c0.2,0.4,0.3,0.8,0.3,1.2
	c0,1.5-1.8,2.3-5.5,2.3c-1.2,0-2.3-0.2-3.4-0.6c-0.9-0.4-1.7-1-2.3-1.7c-1.1-1.3-1.6-2.9-1.7-4.6c-0.1-2,0.6-3.9,2.1-5.2
	c1.4-1.3,3.3-2,5.2-2c2.1-0.2,4.1,0.8,5.3,2.5C401,189.5,401.3,190.6,401.3,191.6z M395.9,192.4c0.6,0,1-0.3,1-0.8
	c0-0.4-0.2-0.7-0.5-0.9c-0.4-0.3-0.8-0.4-1.3-0.4c-0.6,0-1.2,0.3-1.7,0.7c-0.5,0.3-0.8,0.9-0.8,1.5L395.9,192.4z"/>
<path class="st1" d="M364.3,202.8l7.1,14.3c0.2,0.4,0.4,0.8,0.4,1.3c0,0.6-0.5,1.2-1.5,1.7c-0.4,0.3-0.9,0.4-1.4,0.4
	c-0.3,0-0.6-0.1-0.8-0.2c-0.2-0.1-0.3-0.3-0.5-0.5c-0.1-0.2-0.2-0.4-0.4-0.8l-1.4-2.8l-7.1,0.1l-1.3,2.8c-0.2,0.3-0.3,0.6-0.4,0.8
	s-0.3,0.3-0.5,0.5s-0.5,0.3-0.8,0.2c-0.5,0-1-0.2-1.4-0.4c-1-0.5-1.5-1-1.5-1.6c0-0.5,0.2-0.9,0.4-1.3l6.8-14.4
	c0.2-0.4,0.5-0.7,0.9-0.9s0.8-0.4,1.2-0.4C363.2,201.4,364,202,364.3,202.8z M362.3,209l-1.7,3.5h3.4L362.3,209z"/>
<path class="st1" d="M373.2,223.9l-0.1-15c0-0.3,0-0.6,0-0.9c0-0.2,0.1-0.4,0.2-0.6c0.2-0.5,0.8-0.7,1.7-0.7c0.6-0.1,1.3,0,1.8,0.3
	c0.3,0.2,0.5,0.6,0.6,1c0.7-0.9,1.9-1.4,3.1-1.4c1.6,0.1,3,0.8,4,2c2.5,2.5,2.6,6.6,0.1,9.2c-1,1.2-2.4,1.9-4,2
	c-1.1,0.1-2.3-0.3-3.1-1.2v5.2c0,0.3,0,0.6,0,0.9c0,0.2-0.1,0.5-0.2,0.7c-0.1,0.3-0.4,0.4-0.6,0.5c-0.4,0.1-0.8,0.2-1.3,0.2
	c-0.4,0-0.9,0-1.3-0.1c-0.3-0.1-0.5-0.3-0.7-0.5c-0.1-0.2-0.2-0.4-0.2-0.6C373.1,224.5,373.2,224.2,373.2,223.9z M378.2,211.8
	c-0.4,0.4-0.6,1-0.6,1.5c0,0.6,0.2,1.1,0.6,1.5s1,0.7,1.5,0.7c0.6,0,1.2-0.3,1.6-0.7s0.6-0.9,0.6-1.5s-0.2-1.1-0.6-1.5
	s-1-0.7-1.6-0.7C379.1,211,378.6,211.3,378.2,211.8z"/>
<path class="st1" d="M388.3,223.8l-0.1-15c0-0.3,0-0.6,0-0.9c0-0.2,0.1-0.4,0.2-0.6c0.2-0.5,0.8-0.7,1.7-0.7c0.6-0.1,1.3,0,1.8,0.3
	c0.3,0.2,0.5,0.6,0.6,1c0.7-0.9,1.9-1.5,3.1-1.4c1.6,0.1,3,0.8,4,2c2.5,2.5,2.6,6.6,0.1,9.2c-1,1.2-2.4,1.9-4,2
	c-1.1,0.1-2.3-0.3-3.1-1.2v5.2c0,0.3,0,0.6,0,0.9c0,0.2-0.1,0.5-0.2,0.7c-0.1,0.3-0.4,0.5-0.7,0.5c-0.4,0.1-0.8,0.2-1.3,0.2
	c-0.4,0-0.9,0-1.3-0.1c-0.3-0.1-0.5-0.3-0.7-0.5c-0.1-0.2-0.2-0.4-0.2-0.6C388.2,224.4,388.3,224.1,388.3,223.8z M393.3,211.6
	c-0.8,0.8-0.8,2.2,0,3c0.4,0.4,1,0.7,1.5,0.7c0.6,0,1.2-0.2,1.6-0.7c0.4-0.4,0.6-1,0.6-1.5c0-0.6-0.2-1.1-0.6-1.5
	c-0.4-0.5-1-0.7-1.6-0.7C394.2,210.9,393.7,211.2,393.3,211.6L393.3,211.6z"/>
<path class="st2" d="M109.2,70.3c0.7-1.5,2-2.6,3.5-3.1c2.1-0.7,4.3-1.1,6.5-1.2c2.1-0.2,4.2-0.1,6.3,0.3c1.3,0.3,2.5,0.7,3.6,1.4
	c0.9,0.7,1.6,1.6,2.1,2.6c0.7,2.3,1.1,4.6,1.1,7l4.6,75.4c0.1,1.6,0.1,3.1,0.1,4.7c-0.1,1.3-0.5,2.5-1.1,3.7
	c-1.1,2.5-4.6,4-10.4,4.3c-6.3,0.4-10.2-1.1-11.4-4.4c-0.8-2.3-1.2-4.6-1.2-7l-1.7-27.6l-36,2.2l1.7,27.7c0.1,1.6,0.2,3.1,0.1,4.7
	c-0.1,1.3-0.5,2.5-1.1,3.7c-1.1,2.5-4.6,4-10.4,4.3c-6.3,0.4-10.2-1.1-11.5-4.4c-0.8-2.3-1.2-4.6-1.2-7l-4.6-75.4
	c-0.1-1.6-0.2-3.1-0.1-4.7c0.1-1.3,0.5-2.5,1.1-3.7c1.1-2.5,4.6-4,10.4-4.3c6.4-0.4,10.2,1,11.6,4.3c0.7,2.3,1,4.6,1.1,7l1.7,27.7
	l36-2.2l-1.7-27.9c-0.1-1.6-0.1-3.1-0.1-4.7C108.2,72.7,108.6,71.4,109.2,70.3z"/>
<path class="st3" d="M171.5,104.1c4.5-6.3,9.8-9.3,15.8-9c9.3,0.4,16,4.6,20.2,12.7c1.2-1.5,2.4-2.8,3.8-4.1
	c2.1-1.9,4.4-3.4,6.9-4.6c3-1.6,6.3-2.4,9.6-2.2c7,0.2,13.6,3.5,17.9,9.1c4.7,5.8,6.7,15.1,6.2,28l-1,23.8c0,1.6-0.2,3.1-0.4,4.7
	c-0.3,1.3-0.8,2.5-1.4,3.6c-1.3,2.4-4.8,3.5-10.6,3.2s-9.2-1.7-10.3-4.2c-0.5-1.2-0.9-2.4-1-3.6c-0.1-1.6-0.1-3.1,0-4.7l1-23.8
	c0.3-7.9-2.3-12-7.9-12.2c-3.2-0.1-5.4,0.8-6.6,2.9c-1.2,2-1.9,5-2.1,8.8l-1,23.8c0,1.6-0.2,3.2-0.4,4.8c-0.3,1.2-0.8,2.4-1.4,3.5
	c-1.4,2.4-5,3.5-10.8,3.2c-5.8-0.2-9.2-1.7-10.3-4.3c-0.5-1.2-0.9-2.4-1-3.6c-0.1-1.6-0.1-3.1,0-4.7l1-23.8c0.3-7.9-2.3-12-7.9-12.2
	c-5.4-0.2-8.3,3.6-8.7,11.5l-1,24.1c0,1.6-0.2,3.1-0.4,4.7c-0.3,1.3-0.8,2.5-1.4,3.6c-1.5,2.3-5,3.3-10.8,3.1
	c-5.7-0.2-9.2-1.6-10.4-4.2c-0.5-1.1-0.8-2.4-1-3.6c-0.1-1.6-0.1-3.2,0-4.8l2-47.9c0-1.6,0.2-3.1,0.4-4.7c0.3-1.2,0.7-2.4,1.4-3.4
	c1.5-2.4,4.7-3.5,9.8-3.3s8.4,1.2,9.8,2.9C171,98.6,171.7,101,171.5,104.1z"/>
<path class="st4" d="M264.8,175.9l-2.1-79.5c-0.1-1.5,0-3.1,0.1-4.6c0.2-1.2,0.5-2.4,1.1-3.4c1.2-2.5,4.2-3.8,9-3.9s8,0.4,9.8,1.6
	c1.7,1.2,2.9,3.2,3.1,5.3c3.3-4.8,8.7-7.3,16.1-7.5s14.5,3.1,21.3,9.9c13.6,13.2,14.2,34.8,1.4,48.7c-6.4,7.2-13.3,10.9-20.8,11.1
	c-7.4,0.2-12.9-1.7-16.4-5.8l0.8,27.5c0.1,1.5,0,3.1-0.1,4.6c-0.2,1.2-0.6,2.4-1.1,3.5c-0.7,1.4-1.9,2.4-3.4,2.9
	c-2.2,0.7-4.4,1-6.6,1c-2.3,0.1-4.6-0.1-6.8-0.6c-1.5-0.4-2.8-1.3-3.6-2.6c-0.6-1-1.1-2.2-1.3-3.4
	C264.9,178.9,264.8,177.4,264.8,175.9z M290,111c-1.9,2.3-3,5.1-2.9,8.1s1.3,5.8,3.4,7.9c2.1,2.3,5.1,3.5,8.3,3.4
	c3.2,0,6.2-1.4,8.3-3.8c2.1-2.2,3.3-5.1,3.3-8.1c-0.1-3-1.3-5.9-3.5-8c-2.2-2.3-5.4-3.6-8.6-3.4C295.1,107.1,292,108.5,290,111z"/>
<path class="st5" d="M385.4,96.5c6.3,0.2,9.9,2.1,10.9,5.6c0.5,2.2,0.7,4.5,0.6,6.8c0,2.3-0.4,4.5-1.1,6.7c-0.5,1.5-1.5,2.7-2.9,3.5
	c-1.9,1-4.7,1.5-8.4,1.3l-8.7-0.8l-1.2,36.5c-0.1,3.5-0.6,6-1.5,7.6s-2.3,2.7-4.1,3.2c-2.3,0.5-4.6,0.7-6.9,0.6
	c-2.3,0-4.5-0.4-6.7-1.1c-1.5-0.5-2.8-1.6-3.5-3c-0.6-1.1-1-2.4-1.2-3.6c-0.1-1.6-0.1-3.2,0-4.8l1.2-36.1l-4.9-0.2
	c-2.3-0.3-4-0.9-5-1.8c-1.7-1.8-2.4-5.1-2.2-10c0.2-7.4,3-11.1,8.4-10.9l4.5,0.2l0.2-7.2c0.3-7,3.2-13.7,8.1-18.7
	c5.2-5.5,12.5-8.1,21.9-7.8c1.6,0,3.1,0.2,4.7,0.4c1.3,0.3,2.5,0.7,3.6,1.4c2.4,1.3,3.5,4.8,3.3,10.6c-0.1,4.3-1,7.5-2.6,9.3
	c-1.3,1.4-3.4,2.2-6.1,2.2l-3.8-0.1c-3.3-0.1-5.1,1-5.1,3.2l-0.2,7.5L385.4,96.5z"/>
<path class="st6" d="M408,149c1.2-2,3.1-3.4,5.4-4s5.9-0.7,10.6-0.4s8.2,1.6,10.2,3.9c2,2.3,2.8,5.6,2.5,10.1l-0.2,2.6
	c-0.1,2-0.3,3.9-0.7,5.8c-0.4,1.6-1,3.1-1.9,4.4c-2,3.1-6.3,4.3-13,3.9c-6.7-0.5-11-1.9-13-4.2s-2.8-6.5-2.3-12.7
	C406,154.2,406.8,151,408,149z M431.5,131.4c-5.6,0.7-11.4,0.3-16.8-1.2c-1.8-0.5-3.3-1.7-4.2-3.3c-0.6-1.2-1.1-2.5-1.2-3.9
	c-0.1-1.7,0-3.4,0.1-5.1l3.8-52.3c0.1-1.7,0.3-3.5,0.6-5.2c0.4-1.4,1-2.6,1.9-3.8c1.2-1.5,2.8-2.4,4.7-2.7
	c5.6-0.8,11.4-0.4,16.8,1.2c1.8,0.5,3.3,1.8,4.1,3.5c0.6,1.3,1,2.6,1.2,4.1c0.1,1.7,0,3.5-0.1,5.2l-3.8,52.3
	c-0.1,1.7-0.3,3.4-0.6,5.1c-0.4,1.3-1,2.5-1.8,3.6C435,130.2,433.3,131.1,431.5,131.4L431.5,131.4z"/>
</svg>
