<svg xmlns="http://www.w3.org/2000/svg" viewBox="0 0 507.74 266.48"><defs><style>.a{fill:#a3a3a2;}.b{fill:#fff;}.c{fill:#ffdfba;}.d{fill:#ffffba;}.e{fill:#baffc9;}.f{fill:#bae1ff;}.g{fill:#ffb3ba;}</style></defs><path class="a" d="M446,214c-78.65,49.88-177.79,61.82-260.23,45.73C122.88,247.51,39.46,227.18,8.65,160.33c-25-54.67,5.16-115,78.47-136.8C186.73-5.56,292-7.29,395.29,16.18c43.92,10,96.83,33.68,109.63,81.48C517.66,145.22,485.37,189,446,214Z"/><path class="b" d="M313.71,189.38l4.53,0c.93,0,1.5.26,1.7.7a3.07,3.07,0,0,1,.27,1.44l.05,5.67a2.2,2.2,0,0,1-.71,1.57c-1.42,1.51-3.58,2.27-6.46,2.3a9,9,0,0,1-6.69-2.84,9.62,9.62,0,0,1-2.89-7,9,9,0,0,1,2.82-6.85,9.52,9.52,0,0,1,6.77-2.8,9.39,9.39,0,0,1,5.76,2,1.42,1.42,0,0,1,.7,1.14,2.64,2.64,0,0,1-.57,1.46c-.67.91-1.27,1.37-1.82,1.37a3.39,3.39,0,0,1-1.58-.69,4.61,4.61,0,0,0-2.58-.69,5,5,0,0,0-3.46,1.41,4.67,4.67,0,0,0-1.49,3.62,5.21,5.21,0,0,0,1.58,3.77,4.77,4.77,0,0,0,3.51,1.52,6.66,6.66,0,0,0,2.55-.48l0-2.81-2,0a2.21,2.21,0,0,1-1.14-.2.94.94,0,0,1-.44-.6,4.31,4.31,0,0,1-.11-1.08,4.06,4.06,0,0,1,.11-1.09.8.8,0,0,1,.42-.57A2.66,2.66,0,0,1,313.71,189.38Z"/><path class="b" d="M335.46,192.17a3.1,3.1,0,0,1-.76,2.34,2.44,2.44,0,0,1-1.73.78l-6.1.05a1.4,1.4,0,0,0,.86,1.2,3.46,3.46,0,0,0,1.7.48,7.1,7.1,0,0,0,2.34-.33l.28-.11a2.62,2.62,0,0,1,1-.29c.55,0,1,.38,1.42,1.15a2.75,2.75,0,0,1,.35,1.18c0,1.53-1.81,2.3-5.46,2.34a8.27,8.27,0,0,1-3.39-.63,5.7,5.7,0,0,1-2.32-1.72A7.39,7.39,0,0,1,322,194a6.72,6.72,0,0,1,2.05-5.21,7.46,7.46,0,0,1,5.22-2,5.85,5.85,0,0,1,5.27,2.48A5.11,5.11,0,0,1,335.46,192.17ZM330,193c.65,0,1-.28,1-.83a1.17,1.17,0,0,0-.46-.95,2,2,0,0,0-1.29-.35,2.63,2.63,0,0,0-1.65.7,1.87,1.87,0,0,0-.81,1.46Z"/><path class="b" d="M344.92,187q1.79,0,2.1,1a4.52,4.52,0,0,1,.16,1.29,3.77,3.77,0,0,1-.15,1.27,1.22,1.22,0,0,1-.53.69,3.11,3.11,0,0,1-1.56.32l-1.65-.09.06,6.9a3.44,3.44,0,0,1-.23,1.46,1.21,1.21,0,0,1-.75.63,4.48,4.48,0,0,1-1.29.17,4,4,0,0,1-1.28-.16,1.22,1.22,0,0,1-.69-.53,2,2,0,0,1-.25-.68c0-.21,0-.51,0-.9l-.06-6.82h-.93a1.59,1.59,0,0,1-.95-.3,2.66,2.66,0,0,1-.51-1.87q0-2.11,1.5-2.13h.85v-1.37a5.28,5.28,0,0,1,1.39-3.6,5.13,5.13,0,0,1,4.08-1.64c.39,0,.69,0,.88,0a1.9,1.9,0,0,1,.69.24c.46.22.7.88.71,2a2.8,2.8,0,0,1-.42,1.78,1.59,1.59,0,0,1-1.13.48h-.72c-.64,0-.95.23-.95.65v1.42Z"/><path class="b" d="M354.55,200.36a5.46,5.46,0,0,1-4.32-1.94,7,7,0,0,1-1.76-4.78l0-4.5a5.61,5.61,0,0,1,0-.91,2.28,2.28,0,0,1,.21-.67c.24-.46.9-.7,2-.71s1.91.31,2.12,1a4,4,0,0,1,.17,1.31l0,4.51a2.3,2.3,0,0,0,3.89,1.58,2.16,2.16,0,0,0,.62-1.62l0-4.56c0-.39,0-.69,0-.88a1.9,1.9,0,0,1,.24-.69c.22-.45.88-.68,2-.68s1.75.21,2,.67a2.36,2.36,0,0,1,.23.68c0,.2,0,.5,0,.89l.08,9.11c0,.38,0,.67,0,.86a1.67,1.67,0,0,1-.24.66q-.37.67-2,.69c-1,0-1.69-.19-1.93-.6a2.06,2.06,0,0,1-.27-1.06,2.54,2.54,0,0,1-.46.52,5.45,5.45,0,0,1-.69.57A3.41,3.41,0,0,1,354.55,200.36ZM352.94,185a5.66,5.66,0,0,1-2.63,0,1.13,1.13,0,0,1-.7-.55,2.09,2.09,0,0,1-.25-.69,7.11,7.11,0,0,1,0-.93,7.82,7.82,0,0,1,.05-.9,2.3,2.3,0,0,1,.22-.66,1.12,1.12,0,0,1,.69-.55,4.78,4.78,0,0,1,1.33-.16,4.32,4.32,0,0,1,1.31.14,1.1,1.1,0,0,1,.7.55,2.16,2.16,0,0,1,.25.69,8.49,8.49,0,0,1,.05.9,6.69,6.69,0,0,1,0,.9,2.06,2.06,0,0,1-.23.69A1.11,1.11,0,0,1,352.94,185Zm6.95-.06a4.27,4.27,0,0,1-1.32.17,4.39,4.39,0,0,1-1.32-.14,1.16,1.16,0,0,1-.7-.55,2.67,2.67,0,0,1-.25-.69c0-.2,0-.51,0-.92a5.73,5.73,0,0,1,0-.91,1.76,1.76,0,0,1,.24-.67,1.16,1.16,0,0,1,.7-.54,4.7,4.7,0,0,1,1.32-.16,4.39,4.39,0,0,1,1.32.14,1.13,1.13,0,0,1,.7.55,2.25,2.25,0,0,1,.25.69,8.49,8.49,0,0,1,.05.9,6.59,6.59,0,0,1,0,.9,2.06,2.06,0,0,1-.23.69A1.11,1.11,0,0,1,359.89,184.89Z"/><path class="b" d="M371.92,186.75a5.42,5.42,0,0,1,4.3,1.92,7,7,0,0,1,1.75,4.77l0,4.53c0,.4,0,.69,0,.89a2.33,2.33,0,0,1-.24.68q-.33.68-2,.69c-1,0-1.7-.21-2-.65a2.12,2.12,0,0,1-.25-.7,8.77,8.77,0,0,1-.05-.92l0-4.51a2.23,2.23,0,0,0-.61-1.64,2.07,2.07,0,0,0-1.51-.58,2.54,2.54,0,0,0-1.6.57,2,2,0,0,0-.79,1.25l0,5c0,.39,0,.69,0,.89a1.92,1.92,0,0,1-.24.68q-.33.67-2,.69c-1.08,0-1.74-.22-2-.68a2.67,2.67,0,0,1-.23-.67,8.8,8.8,0,0,1,0-.9l-.13-15.39a5.51,5.51,0,0,1,0-.89,1.93,1.93,0,0,1,.21-.66c.24-.46.9-.7,2-.71s1.74.22,2,.68a2.38,2.38,0,0,1,.25.68,8.89,8.89,0,0,1,0,.89l.05,5.68A3.82,3.82,0,0,1,371.92,186.75Z"/><path class="b" d="M380.1,182.51c0-.39,0-.69,0-.89a2.47,2.47,0,0,1,.21-.68c.24-.47.91-.7,2-.71s1.71.21,2,.68a2,2,0,0,1,.25.69c0,.2,0,.5,0,.9l.1,11.91a2.64,2.64,0,0,0,.17,1.17c.1.17.33.25.68.24a3.71,3.71,0,0,1,.71,0,1.15,1.15,0,0,1,.44.21c.34.22.52.83.53,1.82s-.16,1.75-.5,2-1.5.37-3.19.18a3.21,3.21,0,0,1-2.58-1.29,8.47,8.47,0,0,1-.76-4Z"/><path class="b" d="M401.37,191.61a3.13,3.13,0,0,1-.76,2.35,2.43,2.43,0,0,1-1.73.77l-6.1.05a1.42,1.42,0,0,0,.86,1.21,3.32,3.32,0,0,0,1.7.47,7.1,7.1,0,0,0,2.34-.33l.28-.1a2.61,2.61,0,0,1,1-.3c.55,0,1,.38,1.43,1.15a2.9,2.9,0,0,1,.34,1.18q0,2.3-5.46,2.34a8.27,8.27,0,0,1-3.39-.63,5.7,5.7,0,0,1-2.32-1.72,7.39,7.39,0,0,1-1.66-4.64,6.7,6.7,0,0,1,2.05-5.2,7.42,7.42,0,0,1,5.22-2,5.83,5.83,0,0,1,5.27,2.48A5.05,5.05,0,0,1,401.37,191.61Zm-5.42.8c.65,0,1-.28,1-.83a1.17,1.17,0,0,0-.46-1,2,2,0,0,0-1.29-.34,2.56,2.56,0,0,0-1.65.69,1.89,1.89,0,0,0-.81,1.46Z"/><path class="b" d="M364.38,202.8l7.07,14.3a3.28,3.28,0,0,1,.45,1.31c0,.62-.49,1.18-1.48,1.68a3.29,3.29,0,0,1-1.37.45,1.35,1.35,0,0,1-.83-.22,1.41,1.41,0,0,1-.46-.49c-.1-.17-.23-.42-.41-.76L366,216.3l-7.13.06-1.31,2.79c-.17.34-.3.59-.4.75a1.83,1.83,0,0,1-.46.48,1.31,1.31,0,0,1-.82.25,3.43,3.43,0,0,1-1.38-.43c-1-.47-1.5-1-1.5-1.63a3.18,3.18,0,0,1,.42-1.32l6.83-14.44a2.35,2.35,0,0,1,2.07-1.33A2.17,2.17,0,0,1,364.38,202.8Zm-2,6.19-1.67,3.54,3.43,0Z"/><path class="b" d="M373.24,223.93l-.13-15q0-.59,0-.87a2.27,2.27,0,0,1,.22-.65c.23-.46.81-.7,1.72-.71a3.43,3.43,0,0,1,1.84.33,1.38,1.38,0,0,1,.56,1,3.56,3.56,0,0,1,3.07-1.37,5.51,5.51,0,0,1,4,1.95,6.59,6.59,0,0,1,.09,9.21,5.41,5.41,0,0,1-4,2,3.71,3.71,0,0,1-3.07-1.16l0,5.2q0,.58,0,.87a1.93,1.93,0,0,1-.23.66,1.08,1.08,0,0,1-.65.54,4.2,4.2,0,0,1-1.26.16,4,4,0,0,1-1.27-.14,1.1,1.1,0,0,1-.68-.51,1.78,1.78,0,0,1-.23-.64A6,6,0,0,1,373.24,223.93Zm5-12.16a2.23,2.23,0,0,0,0,3,2,2,0,0,0,1.55.67,2.15,2.15,0,0,0,1.59-.68,2.12,2.12,0,0,0,.65-1.53,2.23,2.23,0,0,0-.64-1.52,2,2,0,0,0-1.61-.67A2,2,0,0,0,378.23,211.77Z"/><path class="b" d="M388.34,223.8l-.13-15q0-.59,0-.87a2.37,2.37,0,0,1,.22-.65c.23-.46.81-.7,1.72-.71a3.43,3.43,0,0,1,1.84.34,1.36,1.36,0,0,1,.56,1,3.57,3.57,0,0,1,3.06-1.37,5.51,5.51,0,0,1,4,1.95,6.6,6.6,0,0,1,.09,9.22,5.43,5.43,0,0,1-4,2,3.68,3.68,0,0,1-3.07-1.16l0,5.2c0,.4,0,.69,0,.88a2.27,2.27,0,0,1-.23.66,1.1,1.1,0,0,1-.65.53,4.2,4.2,0,0,1-1.26.16,4,4,0,0,1-1.27-.14,1.1,1.1,0,0,1-.68-.51,1.78,1.78,0,0,1-.23-.64A6,6,0,0,1,388.34,223.8Zm5-12.16a2.32,2.32,0,0,0-.58,1.52,2.23,2.23,0,0,0,.62,1.5,1.93,1.93,0,0,0,1.55.67,2.12,2.12,0,0,0,1.59-.68,2.07,2.07,0,0,0,.64-1.52,2.18,2.18,0,0,0-.63-1.53,2.08,2.08,0,0,0-1.61-.67A2,2,0,0,0,393.33,211.64Z"/><path class="c" d="M109.17,70.3a6,6,0,0,1,3.5-3.08A21.93,21.93,0,0,1,119.14,66a23.5,23.5,0,0,1,6.3.29,10.88,10.88,0,0,1,3.63,1.42,6.1,6.1,0,0,1,2.07,2.6,26.91,26.91,0,0,1,1.11,7l4.61,75.45a39.31,39.31,0,0,1,.08,4.7,10.87,10.87,0,0,1-1.07,3.68q-1.68,3.78-10.38,4.32c-6.34.38-10.16-1.06-11.45-4.35a22.62,22.62,0,0,1-1.25-7l-1.69-27.6-36,2.2,1.69,27.73a40,40,0,0,1,.09,4.71,11.11,11.11,0,0,1-1.07,3.68q-1.7,3.78-10.38,4.32-9.52.57-11.46-4.35a22.92,22.92,0,0,1-1.25-7L48.1,82.35a39.79,39.79,0,0,1-.09-4.7A10.92,10.92,0,0,1,49.09,74q1.66-3.8,10.37-4.32Q69,69.07,71.06,74a27.8,27.8,0,0,1,1.11,7l1.69,27.73,36-2.2-1.7-27.87a41.59,41.59,0,0,1-.08-4.7A10.87,10.87,0,0,1,109.17,70.3Z"/><path class="d" d="M171.54,104.11q6.79-9.39,15.78-9,13.88.59,20.18,12.71a47.36,47.36,0,0,1,3.79-4.14,29.7,29.7,0,0,1,6.94-4.61,18.9,18.9,0,0,1,9.64-2.25,23.3,23.3,0,0,1,17.88,9.13q7,8.69,6.18,28l-1,23.82a39.5,39.5,0,0,1-.41,4.68,10.93,10.93,0,0,1-1.44,3.55q-1.92,3.6-10.63,3.24T228.13,165a12.73,12.73,0,0,1-1-3.65,39.84,39.84,0,0,1,0-4.7l1-23.82q.51-11.84-7.93-12.19-4.77-.19-6.6,2.86t-2.07,8.77l-1,23.81a38.84,38.84,0,0,1-.4,4.76,11.09,11.09,0,0,1-1.44,3.48q-2.07,3.6-10.77,3.23t-10.32-4.26a12.36,12.36,0,0,1-1-3.65,37.32,37.32,0,0,1,0-4.7l1-23.82q.51-11.84-7.93-12.19-8.17-.34-8.67,11.49l-1,24.09a39.29,39.29,0,0,1-.41,4.68,11,11,0,0,1-1.44,3.56q-2.19,3.45-10.76,3.09T147,161.69a12.79,12.79,0,0,1-1-3.59,38.09,38.09,0,0,1,0-4.77l2-47.89a39.72,39.72,0,0,1,.41-4.69,9.64,9.64,0,0,1,1.43-3.42q2.2-3.58,9.82-3.26t9.83,2.87C171,98.63,171.67,101,171.54,104.11Z"/><path class="e" d="M264.79,175.85l-2.15-79.51a37,37,0,0,1,.08-4.64,11.22,11.22,0,0,1,1.06-3.43q1.82-3.73,9-3.92t9.79,1.57a7.35,7.35,0,0,1,3.07,5.3q5-7.22,16.08-7.52t21.32,9.91a34.93,34.93,0,0,1,1.38,48.74q-9.58,10.76-20.75,11.05t-16.37-5.82l.75,27.5a38.83,38.83,0,0,1-.08,4.63,11.29,11.29,0,0,1-1.13,3.51,5.77,5.77,0,0,1-3.4,2.88,21.92,21.92,0,0,1-6.65,1,22.73,22.73,0,0,1-6.76-.63,5.82,5.82,0,0,1-3.61-2.63,10.31,10.31,0,0,1-1.32-3.37A39.29,39.29,0,0,1,264.79,175.85ZM290,111a12.15,12.15,0,0,0-2.91,8.12,11.73,11.73,0,0,0,3.41,7.88,10.45,10.45,0,0,0,8.27,3.38,11.35,11.35,0,0,0,8.34-3.77,11.18,11.18,0,0,0,3.26-8.12,11.76,11.76,0,0,0-3.49-8,10.91,10.91,0,0,0-8.61-3.38A10.42,10.42,0,0,0,290,111Z"/><path class="f" d="M385.35,96.51q9.39.31,10.85,5.55a23.27,23.27,0,0,1,.58,6.83,21.2,21.2,0,0,1-1.11,6.71,6.36,6.36,0,0,1-2.92,3.51q-2.91,1.55-8.36,1.35l-8.69-.84-1.24,36.48q-.18,5.18-1.55,7.65a6.46,6.46,0,0,1-4.07,3.2,24.28,24.28,0,0,1-6.9.58,21.13,21.13,0,0,1-6.7-1.11,6.27,6.27,0,0,1-3.51-3,10,10,0,0,1-1.18-3.65,44,44,0,0,1,0-4.77l1.23-36.07-4.9-.17q-3.52-.39-5-1.8c-1.67-1.78-2.41-5.12-2.25-10Q340,95.79,348,96.06l4.49.15.25-7.21a28.11,28.11,0,0,1,8.13-18.74q7.78-8.25,21.93-7.77a39.4,39.4,0,0,1,4.69.37,11,11,0,0,1,3.57,1.41q3.62,1.91,3.31,10.61c-.14,4.35-1,7.46-2.63,9.31q-2,2.11-6.07,2.25l-3.81-.13q-5-.18-5.15,3.23L376.47,97Z"/><path class="g" d="M408,149a8.6,8.6,0,0,1,5.35-4q3.47-.92,10.65-.39t10.17,3.89q3,3.38,2.5,10.14l-.19,2.64a50.73,50.73,0,0,1-.68,5.84,14.87,14.87,0,0,1-1.89,4.43q-3,4.59-13,3.87t-13-4.18q-3-3.45-2.31-12.7Q406.13,152.07,408,149Zm23.51-17.63a43.2,43.2,0,0,1-16.83-1.22,6.72,6.72,0,0,1-4.16-3.29,11.13,11.13,0,0,1-1.21-3.9,38.52,38.52,0,0,1,.12-5.14l3.81-52.33a40.67,40.67,0,0,1,.62-5.18,10.51,10.51,0,0,1,1.85-3.76,7.37,7.37,0,0,1,4.68-2.73A39.5,39.5,0,0,1,437.24,55a6.89,6.89,0,0,1,4.14,3.46,11.78,11.78,0,0,1,1.2,4.07,39.83,39.83,0,0,1-.13,5.21l-3.8,52.33a39.39,39.39,0,0,1-.62,5.1,9.92,9.92,0,0,1-1.84,3.6A7.17,7.17,0,0,1,431.52,131.34Z"/></svg>