<?xml version="1.0" encoding="utf-8"?>
<!-- Generator: Adobe Illustrator 25.1.0, SVG Export Plug-In . SVG Version: 6.00 Build 0)  -->
<svg version="1.1" id="Ebene_1" xmlns="http://www.w3.org/2000/svg" xmlns:xlink="http://www.w3.org/1999/xlink" x="0px" y="0px"
	 viewBox="0 0 60 60" style="enable-background:new 0 0 60 60;" xml:space="preserve">
<style type="text/css">
	.st0{fill:#9A9A9A;}
	.st1{fill:#FFFFFF;}
</style>
<g>
	<path class="st0" d="M-832.4-1199.2c-4-40.1-24.3-69.7-60.1-88.6c-30.8-16.3-63.3-19.6-97-13c-29.5,5.8-54.4,20.2-73.4,43.4
		c-19.7,24.1-27.9,51.9-22.6,83.1c0,0-0.1,0-0.1,0c4.8,7.5,8.8,15.6,16,21.5c13,10.6,27.4,11.7,42.3,5.8
		c13.7-5.4,18.3-17.5,19.7-31.2c0.7-6.6,1.2-13.3,2-19.9c1.3-10.3,6.5-17.8,16.1-22.4c20.6-9.8,41.1-9.9,61.6,0.3
		c12.9,6.4,19,17.2,19.9,31.2c0.6,9.1-0.8,18-3.4,26.6c-4.1,13.4-12.7,22.4-26.2,26.5c-4.1,1.2-8.4,2.3-12.5,3.7
		c-29.8,10.4-48,36.6-47.4,68.1c0.4,21,14.1,37.2,33.7,39.8c18.5,2.4,38.1-8.9,42-30c1.1-6.1,5.1-7.8,10-9.6
		c28-10.1,50.3-27.1,64.3-53.9C-834.1-1143.4-829.6-1170.8-832.4-1199.2z"/>
	<path class="st0" d="M-958.9-998c-21.5,0.1-38.8,17.7-38.2,39.1c0.5,20.3,18,37,38.4,36.9c21.3-0.2,38.6-17.5,38.1-38
		C-921.2-981.6-937.8-998-958.9-998z"/>
</g>
<g>
	<path class="st1" d="M49.6,16.7C49,10.5,45.8,5.9,40.3,3c-4.8-2.5-9.8-3-15-2C20.8,1.9,16.9,4.1,14,7.7c-3,3.7-4.3,8-3.5,12.8
		c0,0,0,0,0,0c0.7,1.2,1.4,2.4,2.5,3.3c2,1.6,4.2,1.8,6.5,0.9c2.1-0.8,2.8-2.7,3-4.8c0.1-1,0.2-2.1,0.3-3.1c0.2-1.6,1-2.8,2.5-3.5
		c3.2-1.5,6.3-1.5,9.5,0c2,1,2.9,2.7,3.1,4.8c0.1,1.4-0.1,2.8-0.5,4.1c-0.6,2.1-2,3.5-4.1,4.1c-0.6,0.2-1.3,0.3-1.9,0.6
		c-4.6,1.6-7.4,5.7-7.3,10.5c0.1,3.2,2.2,5.8,5.2,6.1c2.9,0.4,5.9-1.4,6.5-4.6c0.2-0.9,0.8-1.2,1.5-1.5c4.3-1.6,7.8-4.2,9.9-8.3
		C49.3,25.3,50,21.1,49.6,16.7z"/>
	<path class="st1" d="M30.1,47.8c-3.3,0-6,2.7-5.9,6c0.1,3.1,2.8,5.7,5.9,5.7c3.3,0,6-2.7,5.9-5.9C35.9,50.3,33.3,47.8,30.1,47.8z"
		/>
</g>
</svg>
