<?xml version="1.0" encoding="utf-8"?>
<!-- Generator: Adobe Illustrator 25.1.0, SVG Export Plug-In . SVG Version: 6.00 Build 0)  -->
<svg version="1.1" id="Ebene_1" xmlns="http://www.w3.org/2000/svg" xmlns:xlink="http://www.w3.org/1999/xlink" x="0px" y="0px"
	 viewBox="0 0 60 60" style="enable-background:new 0 0 60 60;" xml:space="preserve">
<style type="text/css">
	.st0{fill:#FFFFFF;}
</style>
<path class="st0" d="M55.5,35.7c-3.5-2.7-3.8-8-0.4-10.8c1.6-1.4,2-2.6,1.3-4.4c-0.1-0.1,0-0.3-0.1-0.5c-0.2-0.5-0.4-1-0.6-1.5
	c-1.1-2.7-2.7-5-5.1-6.8c-0.9-0.7-1.6-0.9-2.7-0.4c-1.6,0.8-3.3,0.8-4.9,0.3c-3.1-0.9-5-2.9-5.5-6.2c-0.1-0.9-0.4-1.5-1.3-1.8
	C32,2.2,27.8,2.1,23.6,3.6c-1,0.4-1.6,0.9-1.7,2c-0.8,5.2-5.5,8-10.5,6.1c-0.9-0.3-1.5-0.2-2.2,0.4C5.9,14.7,4,18.2,3.3,22.3
	c-0.2,0.9,0.1,1.4,0.9,1.9c1,0.6,1.9,1.5,2.2,2.7c0.6,0.8,0.9,1.7,0.9,2.7c0.1,2.7-0.9,4.9-3.1,6.4c-0.5,0.4-1.1,0.7-0.9,1.5
	C4,42,5.7,45.9,9.6,48.6c0.8,0.6,1.5,0.7,2.4,0.3c4.9-2.1,10.1,1.2,10.5,5.8c0.1,1.2,0.8,1.7,1.8,2c4.1,1.2,8.2,1.1,12.3-0.2
	c1.1-0.3,1.6-0.9,1.7-2.1c0.5-4.4,4.9-7.8,10.2-6c1.4,0.5,2.2,0.1,3.2-0.7c2.8-2.3,4.2-5.4,5-8.9C57,37.5,56.7,36.6,55.5,35.7z
	 M30.1,40.5c-5.7,0-10.4-4.6-10.4-10.3c-0.1-5.6,4.7-10.4,10.3-10.5c5.7,0,10.4,4.6,10.5,10.3C40.5,35.6,35.7,40.4,30.1,40.5z"/>
</svg>
